<?xml version="1.0" standalone="no"?>
<!DOCTYPE svg PUBLIC "-//W3C//DTD SVG 20010904//EN"
 "http://www.w3.org/TR/2001/REC-SVG-20010904/DTD/svg10.dtd">
<svg version="1.0" xmlns="http://www.w3.org/2000/svg"
 width="382.000000pt" height="280.000000pt" viewBox="0 0 382.000000 280.000000"
 preserveAspectRatio="xMidYMid meet">
<metadata>
Created by potrace 1.16, written by Peter Selinger 2001-2019
</metadata>
<g transform="translate(0.000000,280.000000) scale(0.100000,-0.100000)"
fill="#70010c" stroke="none">
<path d="M2320 2141 c-36 -10 -83 -26 -105 -37 l-40 -19 -3 -168 c-1 -92 0
-167 3 -167 3 0 24 17 46 39 141 135 381 138 528 5 l42 -37 95 94 95 94 -58
53 c-64 59 -186 124 -278 147 -81 21 -242 19 -325 -4z"/>
<path d="M840 1500 l0 -630 135 0 135 0 2 405 3 405 172 -260 c95 -143 176
-260 180 -260 4 1 78 107 162 238 85 130 162 247 171 259 16 21 17 15 23 -116
3 -76 13 -167 22 -202 26 -102 81 -202 153 -280 138 -149 295 -219 492 -219
165 0 321 59 435 163 l56 52 -95 94 -95 94 -42 -37 c-205 -186 -548 -97 -629
163 -18 58 -20 92 -20 412 l0 350 -151 -3 -151 -3 -162 -262 c-88 -144 -163
-262 -166 -262 -3 0 -79 119 -169 264 l-164 265 -148 0 -149 0 0 -630z"/>
</g>
</svg>
